<?xml version="1.0" standalone="no"?>
<!DOCTYPE svg PUBLIC "-//W3C//DTD SVG 20010904//EN"
 "http://www.w3.org/TR/2001/REC-SVG-20010904/DTD/svg10.dtd">
<svg version="1.0" xmlns="http://www.w3.org/2000/svg"
 width="736.000000pt" height="795.000000pt" viewBox="0 0 736.000000 795.000000"
 preserveAspectRatio="xMidYMid meet">
<metadata>
Created by potrace 1.14, written by Peter Selinger 2001-2017
</metadata>
<g transform="translate(0.000000,795.000000) scale(0.100000,-0.100000)"
fill="#000000" stroke="none">
<path d="M1393 6970 l-143 -69 0 -203 c1 -572 38 -1170 91 -1442 49 -259 45
-253 729 -1056 438 -513 431 -505 419 -538 -9 -22 -3 -274 7 -314 1 -5 2 -13
3 -20 0 -7 23 9 49 35 48 47 50 48 102 45 l54 -3 92 -130 c51 -71 95 -141 98
-155 3 -14 19 -83 36 -154 16 -72 30 -136 30 -143 0 -10 -25 -13 -105 -13
l-105 0 -118 59 -118 59 -33 121 c-18 67 -34 121 -36 121 -2 0 -10 -31 -20
-69 l-17 -69 -120 -114 c-67 -62 -138 -129 -159 -148 -37 -34 -38 -38 -83
-240 -31 -142 -43 -222 -41 -260 2 -30 4 -125 5 -210 2 -85 5 -201 9 -256 l6
-101 212 -217 212 -217 193 -23 c106 -13 194 -22 196 -21 2 2 -39 48 -90 102
l-94 99 -16 155 c-15 143 -15 164 0 291 l17 136 215 177 c118 97 221 182 227
189 13 11 163 516 163 547 0 9 -63 170 -140 359 -78 188 -139 344 -138 346 2
2 15 -18 29 -44 14 -26 97 -175 184 -332 l158 -284 -16 -86 c-9 -47 -35 -176
-58 -288 l-42 -202 -248 -211 -247 -211 -16 -72 c-38 -179 -38 -171 -11 -325
l24 -144 123 -163 c120 -158 125 -164 193 -197 135 -66 103 -69 363 29 l232
86 0 162 0 162 -130 94 c-72 51 -151 118 -177 148 -55 64 -65 68 171 -67 87
-50 162 -91 168 -91 5 0 67 33 136 73 70 41 154 89 187 108 l60 33 -32 -39
c-47 -60 -77 -86 -198 -172 l-110 -79 -3 -166 -2 -166 42 -17 c24 -9 126 -48
227 -87 l184 -69 76 31 c42 16 88 38 103 48 36 24 265 327 272 360 3 15 15 83
26 151 l21 123 -21 107 c-12 58 -23 113 -26 122 -3 9 -104 102 -226 205 -122
104 -234 200 -249 214 -25 23 -33 53 -89 310 l-61 285 134 235 c73 129 159
281 191 337 31 57 59 103 60 103 2 0 -64 -161 -146 -359 l-150 -358 82 -271
83 -271 227 -187 228 -187 13 -116 c17 -146 17 -197 0 -345 l-14 -119 -93
-100 c-52 -55 -93 -101 -92 -103 2 -1 91 8 198 21 l195 24 211 218 212 218 6
170 c17 486 19 438 -30 660 l-44 200 -75 70 c-41 39 -113 106 -159 149 -77 71
-86 84 -96 130 -18 88 -25 84 -61 -40 l-33 -116 -118 -59 -118 -59 -105 0
c-70 0 -105 4 -105 11 0 6 16 81 36 166 l36 155 93 132 92 131 54 3 c52 3 55
1 99 -43 24 -25 47 -45 50 -45 8 0 8 -6 13 208 l5 182 43 53 c91 109 211 251
434 512 431 505 571 681 607 765 25 56 62 221 82 360 36 249 66 825 66 1267
l0 233 -141 71 -141 70 -142 -71 -142 -72 -393 -780 -393 -781 57 -451 c31
-248 59 -453 61 -455 3 -3 60 6 172 28 24 5 42 5 40 2 -2 -4 -68 -65 -148
-135 -80 -71 -162 -144 -182 -162 l-37 -34 -5 33 c-3 17 -10 109 -15 202 -6
94 -23 349 -37 567 l-26 397 127 233 c135 245 532 971 641 1170 35 64 64 119
64 122 0 3 -64 -63 -142 -147 -79 -84 -217 -231 -308 -327 -303 -321 -368
-394 -470 -530 -96 -128 -115 -162 -398 -722 l-297 -588 -174 3 -175 2 -46 90
c-25 50 -158 311 -294 580 -225 442 -258 503 -345 620 -111 149 -137 180 -316
370 -73 77 -148 157 -166 178 -87 96 -444 474 -447 471 -2 -1 59 -116 136
-256 158 -287 663 -1210 682 -1247 10 -20 6 -130 -26 -618 -21 -326 -42 -593
-45 -593 -12 0 -373 320 -367 324 2 2 49 -6 106 -17 57 -10 105 -17 107 -15 2
2 30 206 61 453 l57 450 -392 783 -393 783 -139 69 c-76 39 -140 70 -141 70
-2 -1 -67 -32 -145 -70z"/>
<path d="M3460 1047 c-118 -39 -217 -72 -219 -74 -2 -1 37 -51 87 -110 l90
-108 131 -27 131 -27 132 27 131 27 88 105 c49 58 85 108 81 112 -7 7 -425
149 -433 147 -2 0 -101 -33 -219 -72z"/>
</g>
</svg>
